<mxfile host="app.diagrams.net" modified="2022-08-05T04:55:38.780Z" agent="5.0 (Windows NT 10.0; Win64; x64) AppleWebKit/537.36 (KHTML, like Gecko) Chrome/103.0.0.0 Safari/537.36" etag="GmQ2V3tHiatw4ao3bxMt" version="20.2.3" type="github">
  <diagram id="g2-U8IsViLgvCac7QnLi" name="第 1 页">
    <mxGraphModel dx="1038" dy="579" grid="1" gridSize="10" guides="1" tooltips="1" connect="1" arrows="1" fold="1" page="1" pageScale="1" pageWidth="827" pageHeight="1169" math="0" shadow="0">
      <root>
        <mxCell id="0" />
        <mxCell id="1" parent="0" />
        <mxCell id="BeKbv1Aq4-AcYV3YB_1d-1" value="" style="ellipse;whiteSpace=wrap;html=1;aspect=fixed;" vertex="1" parent="1">
          <mxGeometry x="210" y="280" width="40" height="40" as="geometry" />
        </mxCell>
        <mxCell id="BeKbv1Aq4-AcYV3YB_1d-2" value="" style="ellipse;whiteSpace=wrap;html=1;aspect=fixed;" vertex="1" parent="1">
          <mxGeometry x="350" y="360" width="40" height="40" as="geometry" />
        </mxCell>
        <mxCell id="BeKbv1Aq4-AcYV3YB_1d-3" value="" style="endArrow=classic;html=1;rounded=0;exitX=1;exitY=1;exitDx=0;exitDy=0;entryX=0;entryY=0;entryDx=0;entryDy=0;" edge="1" parent="1" source="BeKbv1Aq4-AcYV3YB_1d-1" target="BeKbv1Aq4-AcYV3YB_1d-2">
          <mxGeometry width="50" height="50" relative="1" as="geometry">
            <mxPoint x="390" y="320" as="sourcePoint" />
            <mxPoint x="440" y="270" as="targetPoint" />
          </mxGeometry>
        </mxCell>
      </root>
    </mxGraphModel>
  </diagram>
</mxfile>
